
<svg xmlns="http://www.w3.org/2000/svg" viewBox="0 0 24 24" width="20" height="20" fill="white">
  <path d="M2 4a2 2 0 0 1 2-2h16a2 2 0 0 1 2 2v16a2 2 0 0 1-2 2H4a2 2 0 0 1-2-2V4zm2 0v.01L12 13 20 4.01V4H4zm16 2.243L13.414 12 20 17.757V6.243zM4 6.243v11.514L10.586 12 4 6.243zM5.414 20h13.172L12 14.414 5.414 20z"/>
</svg>
<svg xmlns="http://www.w3.org/2000/svg" viewBox="0 0 24 24" width="20" height="20" fill="white">
  <path d="M2 4a2 2 0 0 1 2-2h16a2 2 0 0 1 2 2v16a2 2 0 0 1-2 2H4a2 2 0 0 1-2-2V4zm2 0v.01L12 13 20 4.01V4H4zm16 2.243L13.414 12 20 17.757V6.243zM4 6.243v11.514L10.586 12 4 6.243zM5.414 20h13.172L12 14.414 5.414 20z"/>
</svg>
<svg xmlns="http://www.w3.org/2000/svg" viewBox="0 0 24 24" width="20" height="20" fill="white">
  <path d="M12 2C8.14 2 5 5.14 5 9c0 5.25 7 13 7 13s7-7.75 7-13c0-3.86-3.14-7-7-7zm0 9.5a2.5 2.5 0 1 1 .001-5.001A2.5 2.5 0 0 1 12 11.5z"/>
</svg>
